<?xml version="1.0" encoding="UTF-8"?>
<svg id="Layer_2" data-name="Layer 2" xmlns="http://www.w3.org/2000/svg" viewBox="0 0 477.21 166.13">
  <defs>
    <style>
      .cls-1 {
        font-family: PoppinsVariable-Light, 'Poppins Variable';
        font-size: 148.33px;
        font-variation-settings: 'wght' 300;
        font-weight: 300;
      }

      .cls-1, .cls-2 {
        fill: #0f2337;
      }
    </style>
  </defs>
  <g id="Layer_1-2" data-name="Layer 1">
    <g>
      <text class="cls-1" transform="translate(132.79 126.38)"><tspan x="0" y="0">aviio</tspan></text>
      <g>
        <path class="cls-2" d="M112.36,30.89l-10.02,80.4c-.16,2.03-1.41,3.65-3.15,4.11l-66.39,17.3c11.89-19.5,46.35-76.15,49.48-82.47,1.77-3.56,4.32-6.59,6.55-8.8,2.45-2.43,5.34-4.24,8.5-5.33l15.03-5.2Z"/>
        <path class="cls-2" d="M0,140.36L10.02,59.96c.16-2.03,1.41-3.65,3.15-4.11l66.39-17.3c-11.89,19.5-46.35,76.15-49.48,82.47-1.77,3.56-4.32,6.59-6.55,8.8-2.45,2.43-5.34,4.24-8.5,5.33l-15.03,5.2Z"/>
      </g>
    </g>
  </g>
</svg>